<?xml version="1.0" encoding="UTF-8" standalone="no"?>
<svg
   version="1.1"
   width="24"
   height="24"
   viewBox="0 0 24 24"
   id="svg4"
   sodipodi:docname="cctv2.svg"
   inkscape:version="1.1.2 (0a00cf5339, 2022-02-04, custom)"
   xmlns:inkscape="http://www.inkscape.org/namespaces/inkscape"
   xmlns:sodipodi="http://sodipodi.sourceforge.net/DTD/sodipodi-0.dtd"
   xmlns="http://www.w3.org/2000/svg"
   xmlns:svg="http://www.w3.org/2000/svg">
  <defs
     id="defs8" />
  <sodipodi:namedview
     id="namedview6"
     pagecolor="#ffffff"
     bordercolor="#666666"
     borderopacity="1.0"
     inkscape:pageshadow="2"
     inkscape:pageopacity="0.0"
     inkscape:pagecheckerboard="0"
     showgrid="false"
     inkscape:zoom="26.25"
     inkscape:cx="12"
     inkscape:cy="12"
     inkscape:window-width="2560"
     inkscape:window-height="1367"
     inkscape:window-x="2560"
     inkscape:window-y="0"
     inkscape:window-maximized="1"
     inkscape:current-layer="svg4" />
  <path
     d="M6.03 12.03L8.03 15.5L5.5 18.68L2 12.62L6.03 12.03M17 18V15.29C17.88 14.9 18.5 14.03 18.5 13C18.5 12.43 18.3 11.9 17.97 11.5L19.94 10.35C20.95 9.76 21.3 8.47 20.71 7.46L19.33 5.06C18.74 4.05 17.45 3.7 16.44 4.28L8.31 9C7.36 9.53 7.03 10.75 7.58 11.71L9.08 14.31C9.63 15.26 10.86 15.59 11.81 15.04L13.69 13.96C13.94 14.55 14.41 15.03 15 15.29V18C15 19.1 15.9 20 17 20H22V18H17Z"
     id="path2" />
  <text
     xml:space="preserve"
     style="font-style:normal;font-variant:normal;font-weight:bold;font-stretch:normal;font-size:10.9324px;line-height:1.25;font-family:Roboto;-inkscape-font-specification:'Roboto, Bold';font-variant-ligatures:normal;font-variant-caps:normal;font-variant-numeric:normal;font-variant-east-asian:normal;stroke-width:1.36655"
     x="-0.15091382"
     y="8.1283779"
     id="text2784"><tspan
       sodipodi:role="line"
       id="tspan2782"
       x="-0.15091382"
       y="8.1283779"
       style="stroke-width:1.36655">2</tspan></text>
</svg>
